<svg width="48" height="48" viewBox="0 0 48 48" fill="none" xmlns="http://www.w3.org/2000/svg">
<path d="M24 44C21.2333 44 18.875 43.025 16.925 41.075C14.975 39.125 14 36.7667 14 34C14 32.4 14.35 30.9083 15.05 29.525C15.75 28.1417 16.7333 26.9667 18 26V10C18 8.33333 18.5833 6.91667 19.75 5.75C20.9167 4.58333 22.3333 4 24 4C25.6667 4 27.0833 4.58333 28.25 5.75C29.4167 6.91667 30 8.33333 30 10V26C31.2667 26.9667 32.25 28.1417 32.95 29.525C33.65 30.9083 34 32.4 34 34C34 36.7667 33.025 39.125 31.075 41.075C29.125 43.025 26.7667 44 24 44ZM22 22H26V20H24V18H26V14H24V12H26V10C26 9.43333 25.8083 8.95833 25.425 8.575C25.0417 8.19167 24.5667 8 24 8C23.4333 8 22.9583 8.19167 22.575 8.575C22.1917 8.95833 22 9.43333 22 10V22Z" fill="#A69880"/>
</svg>
