<svg width="40" height="40" viewBox="0 0 40 40" fill="none" xmlns="http://www.w3.org/2000/svg">
<path d="M18.334 35V31.6667H31.6673V19.8333C31.6673 16.5833 30.5354 13.8264 28.2715 11.5625C26.0076 9.29861 23.2506 8.16667 20.0006 8.16667C16.7506 8.16667 13.9937 9.29861 11.7298 11.5625C9.46593 13.8264 8.33398 16.5833 8.33398 19.8333V30H6.66732C5.75065 30 4.96593 29.6736 4.31315 29.0208C3.66037 28.3681 3.33398 27.5833 3.33398 26.6667V23.3333C3.33398 22.75 3.47982 22.2014 3.77148 21.6875C4.06315 21.1736 4.47287 20.7639 5.00065 20.4583L5.12565 18.25C5.34787 16.3611 5.89648 14.6111 6.77148 13C7.64648 11.3889 8.74371 9.98611 10.0631 8.79167C11.3826 7.59722 12.8965 6.66667 14.6048 6C16.3131 5.33333 18.1118 5 20.0006 5C21.8895 5 23.6812 5.33333 25.3756 6C27.0701 6.66667 28.584 7.59028 29.9173 8.77083C31.2506 9.95139 32.3479 11.3472 33.209 12.9583C34.0701 14.5694 34.6256 16.3194 34.8756 18.2083L35.0006 20.375C35.5284 20.625 35.9381 21 36.2298 21.5C36.5215 22 36.6673 22.5278 36.6673 23.0833V26.9167C36.6673 27.4722 36.5215 28 36.2298 28.5C35.9381 29 35.5284 29.375 35.0006 29.625V31.6667C35.0006 32.5833 34.6743 33.3681 34.0215 34.0208C33.3687 34.6736 32.584 35 31.6673 35H18.334ZM15.0006 23.3333C14.5284 23.3333 14.1326 23.1736 13.8131 22.8542C13.4937 22.5347 13.334 22.1389 13.334 21.6667C13.334 21.1944 13.4937 20.7986 13.8131 20.4792C14.1326 20.1597 14.5284 20 15.0006 20C15.4729 20 15.8687 20.1597 16.1881 20.4792C16.5076 20.7986 16.6673 21.1944 16.6673 21.6667C16.6673 22.1389 16.5076 22.5347 16.1881 22.8542C15.8687 23.1736 15.4729 23.3333 15.0006 23.3333ZM25.0006 23.3333C24.5284 23.3333 24.1326 23.1736 23.8131 22.8542C23.4937 22.5347 23.334 22.1389 23.334 21.6667C23.334 21.1944 23.4937 20.7986 23.8131 20.4792C24.1326 20.1597 24.5284 20 25.0006 20C25.4729 20 25.8687 20.1597 26.1881 20.4792C26.5076 20.7986 26.6673 21.1944 26.6673 21.6667C26.6673 22.1389 26.5076 22.5347 26.1881 22.8542C25.8687 23.1736 25.4729 23.3333 25.0006 23.3333ZM10.0423 20.75C9.84787 17.8056 10.7368 15.2778 12.709 13.1667C14.6812 11.0556 17.1395 10 20.084 10C22.5562 10 24.7298 10.7847 26.6048 12.3542C28.4798 13.9236 29.6118 15.9306 30.0006 18.375C27.4729 18.3472 25.1465 17.6667 23.0215 16.3333C20.8965 15 19.2645 13.1944 18.1256 10.9167C17.6812 13.1389 16.7437 15.1181 15.3131 16.8542C13.8826 18.5903 12.1256 19.8889 10.0423 20.75Z" fill="#74613E"/>
</svg>
