<svg width="40" height="40" viewBox="0 0 40 40" fill="none" xmlns="http://www.w3.org/2000/svg">
<path d="M18.3333 32.375V20.9583L8.33333 15.1666V26.5833L18.3333 32.375ZM21.6667 32.375L31.6667 26.5833V15.1666L21.6667 20.9583V32.375ZM18.3333 36.2083L6.66667 29.5C6.13889 29.1944 5.72917 28.7916 5.4375 28.2916C5.14583 27.7916 5 27.2361 5 26.625V13.375C5 12.7639 5.14583 12.2083 5.4375 11.7083C5.72917 11.2083 6.13889 10.8055 6.66667 10.5L18.3333 3.79165C18.8611 3.48609 19.4167 3.33331 20 3.33331C20.5833 3.33331 21.1389 3.48609 21.6667 3.79165L33.3333 10.5C33.8611 10.8055 34.2708 11.2083 34.5625 11.7083C34.8542 12.2083 35 12.7639 35 13.375V26.625C35 27.2361 34.8542 27.7916 34.5625 28.2916C34.2708 28.7916 33.8611 29.1944 33.3333 29.5L21.6667 36.2083C21.1389 36.5139 20.5833 36.6666 20 36.6666C19.4167 36.6666 18.8611 36.5139 18.3333 36.2083ZM26.6667 14.2083L29.875 12.375L20 6.66665L16.75 8.54165L26.6667 14.2083ZM20 18.0833L23.25 16.2083L13.375 10.5L10.125 12.375L20 18.0833Z" fill="#74613E"/>
</svg>
