<svg width="40" height="40" viewBox="0 0 40 40" fill="none" xmlns="http://www.w3.org/2000/svg">
<path d="M20 36.6667C17.9167 36.6667 15.9653 36.2708 14.1458 35.4792C12.3264 34.6875 10.7431 33.6181 9.39583 32.2708C8.04861 30.9236 6.97917 29.3403 6.1875 27.5208C5.39583 25.7014 5 23.75 5 21.6667H8.33333C8.33333 24.9167 9.46528 27.6736 11.7292 29.9375C13.9931 32.2014 16.75 33.3333 20 33.3333C23.25 33.3333 26.0069 32.2014 28.2708 29.9375C30.5347 27.6736 31.6667 24.9167 31.6667 21.6667C31.6667 18.4167 30.5347 15.6597 28.2708 13.3959C26.0069 11.132 23.25 10 20 10H19.75L22.3333 12.5834L20 15L13.3333 8.33335L20 1.66669L22.3333 4.08335L19.75 6.66669H20C22.0833 6.66669 24.0347 7.06252 25.8542 7.85419C27.6736 8.64585 29.2569 9.7153 30.6042 11.0625C31.9514 12.4097 33.0208 13.9931 33.8125 15.8125C34.6042 17.632 35 19.5834 35 21.6667C35 23.75 34.6042 25.7014 33.8125 27.5208C33.0208 29.3403 31.9514 30.9236 30.6042 32.2708C29.2569 33.6181 27.6736 34.6875 25.8542 35.4792C24.0347 36.2708 22.0833 36.6667 20 36.6667Z" fill="#74613E"/>
</svg>
