<svg width="48" height="48" viewBox="0 0 48 48" fill="none" xmlns="http://www.w3.org/2000/svg">
<path d="M17.1 40H30.9L32.9 32H15.1L17.1 40ZM17.1 44C16.1667 44 15.35 43.7167 14.65 43.15C13.95 42.5833 13.4833 41.85 13.25 40.95L11 32H37L34.75 40.95C34.5167 41.85 34.05 42.5833 33.35 43.15C32.65 43.7167 31.8333 44 30.9 44H17.1ZM10 28H38V24H10V28ZM24 16C24 12.6667 25.1667 9.83333 27.5 7.5C29.8333 5.16667 32.6667 4 36 4C36 7 35.05 9.6 33.15 11.8C31.25 14 28.8667 15.3333 26 15.8V20H42V28C42 29.1 41.6083 30.0417 40.825 30.825C40.0417 31.6083 39.1 32 38 32H10C8.9 32 7.95833 31.6083 7.175 30.825C6.39167 30.0417 6 29.1 6 28V20H22V15.8C19.1333 15.3333 16.75 14 14.85 11.8C12.95 9.6 12 7 12 4C15.3333 4 18.1667 5.16667 20.5 7.5C22.8333 9.83333 24 12.6667 24 16Z" fill="#A69880"/>
</svg>
