<svg width="48" height="48" viewBox="0 0 48 48" fill="none" xmlns="http://www.w3.org/2000/svg">
<path d="M31 22C30.1667 22 29.4583 21.7083 28.875 21.125C28.2917 20.5417 28 19.8333 28 19C28 18.4333 28.1583 17.8583 28.475 17.275C28.7917 16.6917 29.1333 16.1583 29.5 15.675C29.8667 15.1917 30.2083 14.7917 30.525 14.475L31 14L31.475 14.475C31.7917 14.7917 32.1333 15.1917 32.5 15.675C32.8667 16.1583 33.2083 16.6917 33.525 17.275C33.8417 17.8583 34 18.4333 34 19C34 19.8333 33.7083 20.5417 33.125 21.125C32.5417 21.7083 31.8333 22 31 22ZM39 16C38.1667 16 37.4583 15.7083 36.875 15.125C36.2917 14.5417 36 13.8333 36 13C36 12.4333 36.1583 11.8583 36.475 11.275C36.7917 10.6917 37.1333 10.1583 37.5 9.675C37.8667 9.19167 38.2083 8.79167 38.525 8.475L39 8L39.475 8.475C39.7917 8.79167 40.1333 9.19167 40.5 9.675C40.8667 10.1583 41.2083 10.6917 41.525 11.275C41.8417 11.8583 42 12.4333 42 13C42 13.8333 41.7083 14.5417 41.125 15.125C40.5417 15.7083 39.8333 16 39 16ZM39 28C38.1667 28 37.4583 27.7083 36.875 27.125C36.2917 26.5417 36 25.8333 36 25C36 24.4333 36.1583 23.8583 36.475 23.275C36.7917 22.6917 37.1333 22.1583 37.5 21.675C37.8667 21.1917 38.2083 20.7917 38.525 20.475L39 20L39.475 20.475C39.7917 20.7917 40.1333 21.1917 40.5 21.675C40.8667 22.1583 41.2083 22.6917 41.525 23.275C41.8417 23.8583 42 24.4333 42 25C42 25.8333 41.7083 26.5417 41.125 27.125C40.5417 27.7083 39.8333 28 39 28ZM18 42C15.2333 42 12.875 41.025 10.925 39.075C8.975 37.125 8 34.7667 8 32C8 30.4 8.35 28.9083 9.05 27.525C9.75 26.1417 10.7333 24.9667 12 24V12C12 10.3333 12.5833 8.91667 13.75 7.75C14.9167 6.58333 16.3333 6 18 6C19.6667 6 21.0833 6.58333 22.25 7.75C23.4167 8.91667 24 10.3333 24 12V24C25.2667 24.9667 26.25 26.1417 26.95 27.525C27.65 28.9083 28 30.4 28 32C28 34.7667 27.025 37.125 25.075 39.075C23.125 41.025 20.7667 42 18 42ZM12 32H24C24 31.0333 23.7917 30.1333 23.375 29.3C22.9583 28.4667 22.3667 27.7667 21.6 27.2L20 26V12C20 11.4333 19.8083 10.9583 19.425 10.575C19.0417 10.1917 18.5667 10 18 10C17.4333 10 16.9583 10.1917 16.575 10.575C16.1917 10.9583 16 11.4333 16 12V26L14.4 27.2C13.6333 27.7667 13.0417 28.4667 12.625 29.3C12.2083 30.1333 12 31.0333 12 32Z" fill="#A69880"/>
</svg>
