<svg width="28" height="28" viewBox="0 0 28 28" fill="none" xmlns="http://www.w3.org/2000/svg">
<g clip-path="url(#clip0_247_2972)">
<path d="M12.9296 2.46835C13.3358 1.53166 14.6642 1.53166 15.0704 2.46835L17.5278 8.13536C17.6968 8.5252 18.0645 8.79231 18.4875 8.83262L24.6365 9.41855C25.6529 9.5154 26.0633 10.7787 25.298 11.4545L20.6678 15.5428C20.3492 15.8241 20.2088 16.2563 20.3012 16.671L21.6441 22.7002C21.866 23.6967 20.7914 24.4775 19.9122 23.9584L14.5931 20.8182C14.2272 20.6021 13.7728 20.6021 13.4069 20.8182L8.08781 23.9584C7.20863 24.4775 6.13396 23.6967 6.35593 22.7002L7.69882 16.671C7.7912 16.2563 7.65078 15.8241 7.33225 15.5428L2.70199 11.4545C1.93666 10.7787 2.34715 9.5154 3.36351 9.41855L9.51254 8.83262C9.93554 8.79231 10.3032 8.5252 10.4722 8.13536L12.9296 2.46835Z" fill="#FFAA00"/>
</g>
<defs>
<clipPath id="clip0_247_2972">
<rect width="28" height="28" fill="white"/>
</clipPath>
</defs>
</svg>
